<svg width="1000" height="1000" xmlns="http://www.w3.org/2000/svg">
 <g>
  <title>Layer 1</title>
  <path id="svg_1" d="m0,-1l478.890015,0c-5.970001,0.71 -11.820007,2.49 -17.880005,2.39c-11.050018,-0.19 -21.890015,2.17 -32.820007,3.29c-87.440002,12.610001 -171.48999,48.689999 -240.279999,104.21c-7.930008,6.470001 -16.160004,12.639999 -23.150009,20.180008c8.880005,7.639999 18.490005,14.369995 27.770004,21.5c35.960007,26.649994 72.869995,52.119995 111.769989,74.309998c44.340027,25.23999 91.730011,46.320007 142.040009,56.059998c7.869995,1.169983 15.640015,3.169983 23.619995,3.549988c11.050018,0.170013 21.960022,2.589996 33.040009,2.140015c10.400024,0.429993 20.669983,-1.529999 31.02002,-2.029999c8.969971,-0.070007 17.699951,-2.380005 26.519958,-3.75c42.320007,-8.360016 82.619995,-24.990021 120.330017,-45.700012c50.23999,-27.419998 96.51001,-61.419998 141.309998,-96.87999c4.210022,-3.169998 8.26001,-6.570007 12.070007,-10.230011c-57.390015,-51.719994 -126.799988,-90.179993 -201.380005,-110.519993c-16.029968,-4.42 -32.25,-8.3 -48.710022,-10.73c-11.669983,-2.26 -23.529968,-3.26 -35.269958,-5.03c-8.030029,-0.09 -15.950012,-1.2 -23.809998,-2.76l474.919983,0l0,462.570007c-1.450012,-2.649994 -2.669983,-5.490021 -2.559998,-8.559998c-0.059998,-6.100006 -0.970032,-12.130005 -1.960022,-18.130005c-11.579956,-93.399994 -50.97998,-182.980011 -111.190002,-255.25c-7.320007,-8.550003 -14.48999,-17.350006 -22.719971,-25.01001c-3.77002,1.160004 -6.669983,4.040009 -9.830017,6.26001c-34.039978,25.049988 -67.700012,50.659988 -99.899963,78.059998c-27.900024,23.899994 -55.210022,48.73999 -79.100037,76.73999c-22.169983,25.369995 -41.899963,53.27002 -55.47998,84.220001c-12.429993,28.320007 -19.679993,59.119995 -19.590027,90.100006c-0.940002,52.570007 13.01001,104.47998 34.619995,152.099976c23.860046,52.480042 56.619995,100.360046 92.140015,145.559998c16.630005,20.910034 33.919983,41.280029 51.76001,61.160034c9.169983,9.830017 17.820007,20.149963 27.320007,29.669983c3.190002,3.140015 5.789978,6.960022 9.52002,9.52002c6.709961,-4.070007 12.209961,-9.830017 18.159973,-14.890015c59.159973,-52.210022 105.590027,-118.73999 134.279968,-192.25c11.390015,-29.029968 19.980042,-59.169983 25.780029,-89.799988c1.080017,-6.690002 2.640015,-13.309998 3.190002,-20.059998c0.570007,-9.820007 3.210022,-19.429993 3.029968,-29.299988c-0.179993,-4.77002 1.02002,-9.410034 2.530029,-13.890015l0,471.179993l-481.820007,0c6.98999,-0.349976 13.809998,-2.200012 20.820007,-2.330017c7.309998,-0.049988 14.580017,-0.919983 21.820007,-1.899963c48.029968,-5.660034 95.130005,-18.800049 139.450012,-38.130005c28.76001,-12.609985 56.209961,-28.100037 82.190002,-45.730042c-5.300049,-7.099976 -12.190002,-12.719971 -18.26001,-19.099976c-31.890015,-31.779968 -63.600037,-63.75 -95.460022,-95.549988c-23.709961,-23.679993 -47.669983,-47.179993 -73.299988,-68.790039c-14.210022,-11.799988 -29.02002,-23.069946 -45.299988,-31.879944c-14.730042,-7.950012 -31.160034,-13.980042 -48.130005,-13.320007c-14.029999,-0.660034 -27.860016,3.130005 -40.559998,8.859985c-32.27002,14.77002 -59.070007,38.599976 -85.809998,61.429993c-13.180023,12.190002 -26.610016,24.090027 -39.660004,36.419983c-12.620026,12.380005 -25.670013,24.320007 -38.52002,36.480042c-20.72998,20.279968 -41.799988,40.209961 -62.979996,60.009949c-4.949997,4.710022 -9.659988,9.680054 -14.779999,14.210022c-2.449997,2.23999 -5.059998,4.429993 -6.729996,7.359985c3.110001,4.080017 7.830002,6.390015 12,9.200012c51.639984,34.030029 109.619995,58.530029 170.170013,71.200012c15.339996,3.330017 30.859985,5.719971 46.369995,8.039978c8.949982,1.48999 18.259979,0.130005 26.880005,3.52002l-468.390015,0l0,-466.450012c1.16,4.51001 2.54,9.030029 2.51,13.73999c-0.06,8.179993 1.7,16.200012 2.74,24.27002c1.22,11.630005 4.24,22.950012 6.24,34.450012c8.360001,41.589966 23.109999,81.75 42.109999,119.630005c32.150002,63.140015 77.540001,119.659973 132.980003,163.849976c11.779999,-11.880005 22.759995,-24.5 34.199997,-36.690002c25.720001,-28.409973 50.630005,-57.589966 73.839996,-88.089966c25.300018,-33.119995 48.679993,-67.820007 68.23999,-104.660034c18.680023,-35.640015 33.800018,-73.529968 41,-113.25c1.450012,-9.869995 3.820007,-19.679993 3.640015,-29.719971c1.209991,-13.380005 1.420013,-26.890015 0.059998,-40.26001c0.040009,-8.080017 -1.440002,-16.02002 -3.070007,-23.890015c-6.549988,-33.72998 -21.619995,-65.309998 -41.039978,-93.47998c-14.059998,-20.529999 -30.390015,-39.380005 -47.540009,-57.360016c-51.309998,-52.660004 -109.940002,-97.419998 -169.080002,-140.830002c-2.770004,-1.979996 -5.350006,-4.459991 -8.650009,-5.509995c-1.549988,0.179993 -2.5,1.800003 -3.639999,2.740005c-5.059998,5.619995 -9.929993,11.409988 -14.999992,17.029999c-60.040001,70.089996 -100.160002,157.139999 -113.870001,248.430008c-0.68,9.589996 -3.22,18.97998 -3.16,28.629974c0.02,4.390015 -1.33,8.600006 -2.51,12.779999l0,-465.359985z" fill="none"/>
  <path id="svg_2" d="m478.890015,0l46.190002,0c7.859985,1.56 15.779968,2.67 23.809998,2.76c11.73999,1.77 23.599976,2.77 35.269958,5.03c16.460022,2.43 32.680054,6.31 48.710022,10.73c74.580017,20.34 143.98999,58.799999 201.380005,110.519993c-3.809998,3.660004 -7.859985,7.060013 -12.070007,10.230011c-44.799988,35.459991 -91.070007,69.459991 -141.309998,96.87999c-37.710022,20.709991 -78.01001,37.339996 -120.330017,45.700012c-8.820007,1.369995 -17.549988,3.679993 -26.519958,3.75c-10.350037,0.5 -20.619995,2.459991 -31.02002,2.029999c-11.079987,0.449982 -21.98999,-1.970001 -33.040009,-2.140015c-7.97998,-0.380005 -15.75,-2.380005 -23.619995,-3.549988c-50.309998,-9.73999 -97.699982,-30.820007 -142.040009,-56.059998c-38.899994,-22.190002 -75.809982,-47.660004 -111.769989,-74.309998c-9.279999,-7.130005 -18.889999,-13.860001 -27.770004,-21.5c6.990005,-7.540009 15.220001,-13.710007 23.150009,-20.180008c68.790009,-55.52 152.839996,-91.599998 240.279999,-104.21c10.929993,-1.12 21.769989,-3.48 32.820007,-3.29c6.059998,0.1 11.910004,-1.68 17.880005,-2.39z" fill="#5496bb"/>
  <path id="svg_3" d="m493.5,100.080002c6.859985,-1.110001 13.820007,-0.060005 20.559998,1.330002c24.48999,4.169998 46.190002,21.059998 56.900024,43.389999c3.839966,7.479996 5.719971,15.73999 7.5,23.910004c2.679993,15.149994 -1.200012,30.729996 -7.410034,44.549988c-3.820007,7.700012 -8.799988,14.830002 -14.640015,21.139999c-12.72998,12.779999 -29.769958,21.139999 -47.649963,23.459991c-16.529999,2.01001 -33.420013,-1.929993 -47.900024,-9.959991c-16.72998,-9.48999 -29.849976,-25.199997 -35.959991,-43.449997c-1.889984,-6 -3.910004,-12.069992 -4.179993,-18.399994c0,-8.5 -0.700012,-17.220001 2.109985,-25.410004c4.910004,-20.139999 17.910004,-38.190002 35.680023,-48.919998c10.5,-6.730003 22.720001,-10.07 34.98999,-11.639999z" fill="#273E43"/>
  <path id="svg_4" d="m134.539993,158.490005c1.139999,-0.940002 2.090012,-2.560013 3.639999,-2.740005c3.300003,1.050003 5.880005,3.529999 8.650009,5.509995c59.139999,43.410004 117.770004,88.169998 169.080002,140.830002c17.149994,17.980011 33.480011,36.830017 47.540009,57.360016c19.419983,28.169983 34.48999,59.75 41.039978,93.47998c1.630005,7.869995 3.110016,15.809998 3.070007,23.890015c1.360016,13.369995 1.149994,26.880005 -0.059998,40.26001c0.179993,10.039978 -2.190002,19.849976 -3.640015,29.719971c-7.199982,39.720032 -22.319977,77.609985 -41,113.25c-19.559998,36.840027 -42.939972,71.540039 -68.23999,104.660034c-23.209991,30.5 -48.119995,59.679993 -73.839996,88.089966c-11.440002,12.190002 -22.419998,24.809998 -34.199997,36.690002c-55.440002,-44.190002 -100.830002,-100.709961 -132.980003,-163.849976c-19,-37.880005 -33.749998,-78.040039 -42.109999,-119.630005c-2,-11.5 -5.02,-22.820007 -6.24,-34.450012c-1.04,-8.070007 -2.8,-16.090027 -2.74,-24.27002c0.03,-4.709961 -1.35,-9.22998 -2.51,-13.73999l0,-68.190002c1.18,-4.179993 2.53,-8.389984 2.51,-12.779999c-0.06,-9.649994 2.48,-19.039978 3.16,-28.629974c13.709999,-91.290009 53.83,-178.340012 113.870001,-248.430008c5.07,-5.62001 9.939995,-11.410004 14.999992,-17.029999z" fill="#7c9d54"/>
  <path id="svg_5" d="m851.73999,161.880005c3.160034,-2.220001 6.059998,-5.100006 9.830017,-6.26001c8.22998,7.660004 15.399963,16.460007 22.719971,25.01001c60.210022,72.269989 99.610046,161.850006 111.190002,255.25c0.98999,6 1.900024,12.029999 1.960022,18.130005c-0.109985,3.069977 1.109985,5.910004 2.559998,8.559998l0,66.25c-1.51001,4.47998 -2.710022,9.119995 -2.530029,13.890015c0.180054,9.869995 -2.459961,19.47998 -3.029968,29.299988c-0.549988,6.75 -2.109985,13.369995 -3.190002,20.059998c-5.799988,30.630005 -14.390015,60.77002 -25.780029,89.799988c-28.689941,73.51001 -75.119995,140.039978 -134.279968,192.25c-5.950012,5.059998 -11.450012,10.820007 -18.159973,14.890015c-3.730042,-2.559998 -6.330017,-6.380005 -9.52002,-9.52002c-9.5,-9.52002 -18.150024,-19.839966 -27.320007,-29.669983c-17.840027,-19.880005 -35.130005,-40.25 -51.76001,-61.160034c-35.52002,-45.199951 -68.279968,-93.079956 -92.140015,-145.559998c-21.609985,-47.619995 -35.559998,-99.529968 -34.619995,-152.099976c-0.089966,-30.980011 7.160034,-61.779999 19.590027,-90.100006c13.580017,-30.949982 33.309998,-58.850006 55.47998,-84.220001c23.890015,-28 51.200012,-52.839996 79.100037,-76.73999c32.199951,-27.400009 65.859985,-53.01001 99.899963,-78.059998z" fill="#7c9d54"/>
  <path id="svg_6" d="m461.450012,692.130005c12.699982,-5.72998 26.529999,-9.52002 40.559998,-8.859985c16.969971,-0.660034 33.399963,5.369995 48.130005,13.320007c16.279968,8.809998 31.089966,20.079956 45.299988,31.879944c25.630005,21.610046 49.590027,45.110046 73.299988,68.790039c31.859985,31.799988 63.570007,63.77002 95.460022,95.549988c6.070007,6.380005 12.959961,12 18.26001,19.099976c-25.980042,17.630005 -53.429993,33.120056 -82.190002,45.730042c-44.320007,19.329956 -91.420044,32.469971 -139.450012,38.130005c-7.23999,0.97998 -14.51001,1.849976 -21.820007,1.899963c-7.01001,0.130005 -13.830017,1.980042 -20.820007,2.330017l-49.789978,0c-8.620026,-3.390015 -17.930023,-2.030029 -26.880005,-3.52002c-15.51001,-2.320007 -31.029999,-4.709961 -46.369995,-8.039978c-60.550018,-12.669983 -118.530029,-37.169983 -170.170013,-71.200012c-4.169998,-2.809998 -8.889999,-5.119995 -12,-9.200012c1.669998,-2.929993 4.279999,-5.119995 6.729996,-7.359985c5.12001,-4.529968 9.830002,-9.5 14.779999,-14.210022c21.180008,-19.799988 42.250015,-39.72998 62.979996,-60.009949c12.850006,-12.160034 25.899994,-24.100037 38.52002,-36.480042c13.049988,-12.329956 26.47998,-24.22998 39.660004,-36.419983c26.73999,-22.830017 53.539978,-46.659973 85.809998,-61.429993z" fill="#7c9d54"/>
 </g>
</svg>